<svg width="25" height="26" viewBox="0 0 25 26" fill="none" xmlns="http://www.w3.org/2000/svg">
<path d="M22.5082 3.18668H20.7269L17.8675 17.9998C17.7894 18.3151 17.6215 18.5807 17.3636 18.7964C17.1058 19.0122 16.8363 19.1201 16.555 19.1201H3.73472C3.43784 19.1201 3.1605 19.0122 2.90269 18.7964C2.64487 18.5807 2.4769 18.3151 2.39878 17.9998L0.101902 8.614C-0.0543479 8.01649 -0.0309104 7.49368 0.172215 7.04555C0.37534 6.59742 0.68784 6.37336 1.10972 6.37336L17.7269 3.31116L18.1488 1.09542C18.2269 0.79667 18.3949 0.539412 18.6527 0.323647C18.9105 0.107882 19.18 0 19.4613 0H22.5082C22.9301 0 23.2855 0.153525 23.5746 0.460575C23.8636 0.767625 24.0082 1.14106 24.0082 1.58089C24.0082 2.02072 23.8597 2.39831 23.5629 2.71366C23.266 3.02901 22.9144 3.18668 22.5082 3.18668ZM6.75816 20.7134C7.38316 20.7134 7.91441 20.9458 8.35191 21.4105C8.78941 21.8752 9.00816 22.4395 9.00816 23.1034C9.00816 23.7673 8.78941 24.3316 8.35191 24.7964C7.91441 25.2611 7.38316 25.4934 6.75816 25.4934C6.13316 25.4934 5.60191 25.2611 5.16441 24.7964C4.72691 24.3316 4.50816 23.7673 4.50816 23.1034C4.50816 22.4395 4.72691 21.8752 5.16441 21.4105C5.60191 20.9458 6.13316 20.7134 6.75816 20.7134ZM14.2582 20.7134C14.8832 20.7134 15.4144 20.9458 15.8519 21.4105C16.2894 21.8752 16.5082 22.4395 16.5082 23.1034C16.5082 23.7673 16.2894 24.3316 15.8519 24.7964C15.4144 25.2611 14.8832 25.4934 14.2582 25.4934C13.6332 25.4934 13.1019 25.2611 12.6644 24.7964C12.2269 24.3316 12.0082 23.7673 12.0082 23.1034C12.0082 22.4395 12.2269 21.8752 12.6644 21.4105C13.1019 20.9458 13.6332 20.7134 14.2582 20.7134Z" fill="black"/>
</svg>
